# xmcd
#
# Track frame offsets: 
#        150
#        18139
#        34579
#        53351
#        74095
#        94659
#        110189
#        129465
#        142861
#        155656
#
# Disc length: 2309 seconds
#
# Revision: 0
# Processed by: cddbd v1.5.2PL0 Copyright (c) Steve Scherf et al.
# Submitted via: ExactAudioCopyFreeDBPlugin 1.0
#
DISCID=8009030a
DTITLE=Keb' Mo' - Bluesamericana
DYEAR=2014
DGENRE=Blues
TTITLE0=The Worst is yet to Come
TTITLE1=Somebody Hurt You
TTITLE2=Do It Right
TTITLE3=I'm Gonna Be Your Man
TTITLE4=Move
TTITLE5=For Better or Worse
TTITLE6=That's Alright
TTITLE7=Old me Better
TTITLE8=More for your Money
TTITLE9=So Long Goodbye
EXTD=
EXTT0=
EXTT1=
EXTT2=
EXTT3=
EXTT4=
EXTT5=
EXTT6=
EXTT7=
EXTT8=
EXTT9=
PLAYORDER=
